<mxfile host="app.diagrams.net" modified="2023-09-01T03:25:26.863Z" agent="Mozilla/5.0 (Windows NT 10.0; Win64; x64) AppleWebKit/537.36 (KHTML, like Gecko) Chrome/116.0.0.0 Safari/537.36" etag="Qqzmc5fjcmuQ4tM37Xvs" version="21.7.1" type="github">
  <diagram name="Page-1" id="oHARTKPdLtnAkvoKE4Um">
    <mxGraphModel dx="1980" dy="718" grid="1" gridSize="10" guides="1" tooltips="1" connect="1" arrows="1" fold="1" page="1" pageScale="1" pageWidth="827" pageHeight="1169" math="0" shadow="0">
      <root>
        <mxCell id="0" />
        <mxCell id="1" parent="0" />
        <mxCell id="UXiYXtpkKjH5TabHA4qE-31" value="" style="edgeStyle=orthogonalEdgeStyle;rounded=0;orthogonalLoop=1;jettySize=auto;html=1;" edge="1" parent="1">
          <mxGeometry relative="1" as="geometry">
            <mxPoint x="946" y="50" as="sourcePoint" />
            <mxPoint x="340" y="160" as="targetPoint" />
            <Array as="points">
              <mxPoint x="880" y="50" />
              <mxPoint x="880" y="120" />
              <mxPoint x="340" y="120" />
            </Array>
          </mxGeometry>
        </mxCell>
        <mxCell id="UXiYXtpkKjH5TabHA4qE-33" value="" style="edgeStyle=orthogonalEdgeStyle;rounded=0;orthogonalLoop=1;jettySize=auto;html=1;" edge="1" parent="1" source="UXiYXtpkKjH5TabHA4qE-2" target="UXiYXtpkKjH5TabHA4qE-32">
          <mxGeometry relative="1" as="geometry">
            <Array as="points">
              <mxPoint x="880" y="120" />
              <mxPoint x="660" y="120" />
            </Array>
          </mxGeometry>
        </mxCell>
        <mxCell id="UXiYXtpkKjH5TabHA4qE-2" value="Quản lý bán hàng tại cửa hàng thời trang AM&lt;div style=&quot;border-color: var(--border-color); padding: 0px; margin: 0px;&quot;&gt;&lt;br style=&quot;border-color: var(--border-color); padding: 0px; margin: 0px; font-size: 15px; font-weight: 700;&quot;&gt;&lt;/div&gt;" style="rounded=1;whiteSpace=wrap;html=1;fillColor=#ffe6cc;strokeColor=#d79b00;labelBackgroundColor=none;labelBorderColor=none;" vertex="1" parent="1">
          <mxGeometry x="770" y="20" width="220" height="60" as="geometry" />
        </mxCell>
        <mxCell id="UXiYXtpkKjH5TabHA4qE-9" value="" style="endArrow=none;html=1;rounded=0;" edge="1" parent="1">
          <mxGeometry width="50" height="50" relative="1" as="geometry">
            <mxPoint x="80" y="120" as="sourcePoint" />
            <mxPoint x="1590" y="120" as="targetPoint" />
          </mxGeometry>
        </mxCell>
        <mxCell id="UXiYXtpkKjH5TabHA4qE-10" value="" style="endArrow=classic;html=1;rounded=0;" edge="1" parent="1">
          <mxGeometry width="50" height="50" relative="1" as="geometry">
            <mxPoint x="80" y="120" as="sourcePoint" />
            <mxPoint x="80" y="160" as="targetPoint" />
          </mxGeometry>
        </mxCell>
        <mxCell id="UXiYXtpkKjH5TabHA4qE-26" value="" style="endArrow=none;html=1;rounded=0;" edge="1" parent="1">
          <mxGeometry width="50" height="50" relative="1" as="geometry">
            <mxPoint x="80" y="320" as="sourcePoint" />
            <mxPoint x="80" y="320" as="targetPoint" />
          </mxGeometry>
        </mxCell>
        <mxCell id="UXiYXtpkKjH5TabHA4qE-58" style="edgeStyle=orthogonalEdgeStyle;rounded=0;orthogonalLoop=1;jettySize=auto;html=1;strokeColor=none;" edge="1" parent="1">
          <mxGeometry relative="1" as="geometry">
            <mxPoint x="354" y="580" as="targetPoint" />
            <mxPoint x="354" y="220" as="sourcePoint" />
          </mxGeometry>
        </mxCell>
        <mxCell id="UXiYXtpkKjH5TabHA4qE-66" style="edgeStyle=orthogonalEdgeStyle;rounded=0;orthogonalLoop=1;jettySize=auto;html=1;entryX=0;entryY=0.5;entryDx=0;entryDy=0;" edge="1" parent="1" source="UXiYXtpkKjH5TabHA4qE-30" target="UXiYXtpkKjH5TabHA4qE-34">
          <mxGeometry relative="1" as="geometry" />
        </mxCell>
        <mxCell id="UXiYXtpkKjH5TabHA4qE-67" style="edgeStyle=orthogonalEdgeStyle;rounded=0;orthogonalLoop=1;jettySize=auto;html=1;entryX=0;entryY=0.25;entryDx=0;entryDy=0;" edge="1" parent="1" source="UXiYXtpkKjH5TabHA4qE-30" target="UXiYXtpkKjH5TabHA4qE-39">
          <mxGeometry relative="1" as="geometry" />
        </mxCell>
        <mxCell id="UXiYXtpkKjH5TabHA4qE-68" style="edgeStyle=orthogonalEdgeStyle;rounded=0;orthogonalLoop=1;jettySize=auto;html=1;entryX=0;entryY=0.5;entryDx=0;entryDy=0;" edge="1" parent="1" source="UXiYXtpkKjH5TabHA4qE-30" target="UXiYXtpkKjH5TabHA4qE-61">
          <mxGeometry relative="1" as="geometry" />
        </mxCell>
        <mxCell id="UXiYXtpkKjH5TabHA4qE-74" style="edgeStyle=orthogonalEdgeStyle;rounded=0;orthogonalLoop=1;jettySize=auto;html=1;entryX=0;entryY=0.5;entryDx=0;entryDy=0;" edge="1" parent="1" source="UXiYXtpkKjH5TabHA4qE-30" target="UXiYXtpkKjH5TabHA4qE-72">
          <mxGeometry relative="1" as="geometry" />
        </mxCell>
        <mxCell id="UXiYXtpkKjH5TabHA4qE-30" value="Quản lý bán hàng" style="whiteSpace=wrap;html=1;fillColor=#ffe6cc;strokeColor=#d79b00;rounded=1;labelBackgroundColor=none;labelBorderColor=none;" vertex="1" parent="1">
          <mxGeometry x="300" y="160" width="120" height="60" as="geometry" />
        </mxCell>
        <mxCell id="UXiYXtpkKjH5TabHA4qE-79" style="edgeStyle=orthogonalEdgeStyle;rounded=0;orthogonalLoop=1;jettySize=auto;html=1;entryX=0;entryY=0.5;entryDx=0;entryDy=0;" edge="1" parent="1" source="UXiYXtpkKjH5TabHA4qE-32" target="UXiYXtpkKjH5TabHA4qE-77">
          <mxGeometry relative="1" as="geometry" />
        </mxCell>
        <mxCell id="UXiYXtpkKjH5TabHA4qE-80" style="edgeStyle=orthogonalEdgeStyle;rounded=0;orthogonalLoop=1;jettySize=auto;html=1;entryX=0;entryY=0.5;entryDx=0;entryDy=0;" edge="1" parent="1" source="UXiYXtpkKjH5TabHA4qE-32" target="UXiYXtpkKjH5TabHA4qE-78">
          <mxGeometry relative="1" as="geometry" />
        </mxCell>
        <mxCell id="UXiYXtpkKjH5TabHA4qE-84" style="edgeStyle=orthogonalEdgeStyle;rounded=0;orthogonalLoop=1;jettySize=auto;html=1;entryX=0;entryY=0.5;entryDx=0;entryDy=0;" edge="1" parent="1" source="UXiYXtpkKjH5TabHA4qE-32" target="UXiYXtpkKjH5TabHA4qE-82">
          <mxGeometry relative="1" as="geometry" />
        </mxCell>
        <mxCell id="UXiYXtpkKjH5TabHA4qE-87" style="edgeStyle=orthogonalEdgeStyle;rounded=0;orthogonalLoop=1;jettySize=auto;html=1;entryX=0;entryY=0.5;entryDx=0;entryDy=0;" edge="1" parent="1" source="UXiYXtpkKjH5TabHA4qE-32" target="UXiYXtpkKjH5TabHA4qE-85">
          <mxGeometry relative="1" as="geometry" />
        </mxCell>
        <mxCell id="UXiYXtpkKjH5TabHA4qE-90" style="edgeStyle=orthogonalEdgeStyle;rounded=0;orthogonalLoop=1;jettySize=auto;html=1;entryX=0;entryY=0.5;entryDx=0;entryDy=0;" edge="1" parent="1" source="UXiYXtpkKjH5TabHA4qE-32" target="UXiYXtpkKjH5TabHA4qE-86">
          <mxGeometry relative="1" as="geometry" />
        </mxCell>
        <mxCell id="UXiYXtpkKjH5TabHA4qE-32" value="Quản lý khách hàng&lt;br&gt;" style="rounded=1;whiteSpace=wrap;html=1;fillColor=#ffe6cc;strokeColor=#d79b00;labelBackgroundColor=none;labelBorderColor=none;" vertex="1" parent="1">
          <mxGeometry x="600" y="160" width="120" height="60" as="geometry" />
        </mxCell>
        <mxCell id="UXiYXtpkKjH5TabHA4qE-34" value="Tạo hóa đơn" style="whiteSpace=wrap;html=1;fillColor=#ffe6cc;strokeColor=#d79b00;rounded=1;labelBackgroundColor=none;labelBorderColor=none;" vertex="1" parent="1">
          <mxGeometry x="400" y="240" width="120" height="60" as="geometry" />
        </mxCell>
        <mxCell id="UXiYXtpkKjH5TabHA4qE-39" value="Thêm khách hàng" style="whiteSpace=wrap;html=1;fillColor=#ffe6cc;strokeColor=#d79b00;rounded=1;labelBackgroundColor=none;labelBorderColor=none;" vertex="1" parent="1">
          <mxGeometry x="400" y="330" width="120" height="60" as="geometry" />
        </mxCell>
        <mxCell id="UXiYXtpkKjH5TabHA4qE-41" value="" style="edgeStyle=orthogonalEdgeStyle;rounded=0;orthogonalLoop=1;jettySize=auto;html=1;" edge="1" parent="1" source="UXiYXtpkKjH5TabHA4qE-43" target="UXiYXtpkKjH5TabHA4qE-44">
          <mxGeometry relative="1" as="geometry">
            <Array as="points">
              <mxPoint x="80" y="270" />
            </Array>
          </mxGeometry>
        </mxCell>
        <mxCell id="UXiYXtpkKjH5TabHA4qE-43" value="Đăng nhập" style="whiteSpace=wrap;html=1;fillColor=#ffe6cc;strokeColor=#d79b00;rounded=1;labelBackgroundColor=none;labelBorderColor=none;" vertex="1" parent="1">
          <mxGeometry x="30" y="160" width="120" height="60" as="geometry" />
        </mxCell>
        <mxCell id="UXiYXtpkKjH5TabHA4qE-44" value="Đăng nhập" style="whiteSpace=wrap;html=1;fillColor=#ffe6cc;strokeColor=#d79b00;rounded=1;labelBackgroundColor=none;labelBorderColor=none;" vertex="1" parent="1">
          <mxGeometry x="120" y="240" width="120" height="60" as="geometry" />
        </mxCell>
        <mxCell id="UXiYXtpkKjH5TabHA4qE-45" value="Đăng xuất" style="whiteSpace=wrap;html=1;fillColor=#ffe6cc;strokeColor=#d79b00;rounded=1;labelBackgroundColor=none;labelBorderColor=none;" vertex="1" parent="1">
          <mxGeometry x="120" y="330" width="120" height="60" as="geometry" />
        </mxCell>
        <mxCell id="UXiYXtpkKjH5TabHA4qE-50" value="" style="edgeStyle=orthogonalEdgeStyle;rounded=0;orthogonalLoop=1;jettySize=auto;html=1;" edge="1" parent="1">
          <mxGeometry relative="1" as="geometry">
            <Array as="points">
              <mxPoint x="80" y="370" />
            </Array>
            <mxPoint x="80" y="270" as="sourcePoint" />
            <mxPoint x="120" y="370" as="targetPoint" />
          </mxGeometry>
        </mxCell>
        <mxCell id="UXiYXtpkKjH5TabHA4qE-61" value="Thanh toán" style="whiteSpace=wrap;html=1;fillColor=#ffe6cc;strokeColor=#d79b00;rounded=1;labelBackgroundColor=none;labelBorderColor=none;" vertex="1" parent="1">
          <mxGeometry x="400" y="410" width="120" height="60" as="geometry" />
        </mxCell>
        <mxCell id="UXiYXtpkKjH5TabHA4qE-72" value="Hủy hóa đơn" style="whiteSpace=wrap;html=1;fillColor=#ffe6cc;strokeColor=#d79b00;rounded=1;labelBackgroundColor=none;labelBorderColor=none;" vertex="1" parent="1">
          <mxGeometry x="400" y="500" width="120" height="60" as="geometry" />
        </mxCell>
        <mxCell id="UXiYXtpkKjH5TabHA4qE-77" value="Thêm khách hàng" style="whiteSpace=wrap;html=1;fillColor=#ffe6cc;strokeColor=#d79b00;rounded=1;labelBackgroundColor=none;labelBorderColor=none;" vertex="1" parent="1">
          <mxGeometry x="710" y="240" width="120" height="60" as="geometry" />
        </mxCell>
        <mxCell id="UXiYXtpkKjH5TabHA4qE-78" value="Xóa khách hàng" style="whiteSpace=wrap;html=1;fillColor=#ffe6cc;strokeColor=#d79b00;rounded=1;labelBackgroundColor=none;labelBorderColor=none;" vertex="1" parent="1">
          <mxGeometry x="710" y="330" width="120" height="60" as="geometry" />
        </mxCell>
        <mxCell id="UXiYXtpkKjH5TabHA4qE-82" value="Cập nhập thông tin khách hàng" style="whiteSpace=wrap;html=1;fillColor=#ffe6cc;strokeColor=#d79b00;rounded=1;labelBackgroundColor=none;labelBorderColor=none;" vertex="1" parent="1">
          <mxGeometry x="707" y="420" width="120" height="60" as="geometry" />
        </mxCell>
        <mxCell id="UXiYXtpkKjH5TabHA4qE-85" value="&amp;nbsp;Tìm kiếm khách hàng" style="whiteSpace=wrap;html=1;fillColor=#ffe6cc;strokeColor=#d79b00;rounded=1;labelBackgroundColor=none;labelBorderColor=none;" vertex="1" parent="1">
          <mxGeometry x="707" y="510" width="120" height="50" as="geometry" />
        </mxCell>
        <mxCell id="UXiYXtpkKjH5TabHA4qE-86" value="Sắp xếp khách hàng" style="whiteSpace=wrap;html=1;fillColor=#ffe6cc;strokeColor=#d79b00;rounded=1;labelBackgroundColor=none;labelBorderColor=none;" vertex="1" parent="1">
          <mxGeometry x="707" y="595" width="120" height="40" as="geometry" />
        </mxCell>
        <mxCell id="UXiYXtpkKjH5TabHA4qE-158" style="edgeStyle=orthogonalEdgeStyle;rounded=0;orthogonalLoop=1;jettySize=auto;html=1;entryX=0;entryY=0.5;entryDx=0;entryDy=0;" edge="1" parent="1" source="UXiYXtpkKjH5TabHA4qE-164" target="UXiYXtpkKjH5TabHA4qE-165">
          <mxGeometry relative="1" as="geometry" />
        </mxCell>
        <mxCell id="UXiYXtpkKjH5TabHA4qE-159" style="edgeStyle=orthogonalEdgeStyle;rounded=0;orthogonalLoop=1;jettySize=auto;html=1;entryX=0;entryY=0.5;entryDx=0;entryDy=0;" edge="1" parent="1" source="UXiYXtpkKjH5TabHA4qE-164" target="UXiYXtpkKjH5TabHA4qE-166">
          <mxGeometry relative="1" as="geometry" />
        </mxCell>
        <mxCell id="UXiYXtpkKjH5TabHA4qE-160" style="edgeStyle=orthogonalEdgeStyle;rounded=0;orthogonalLoop=1;jettySize=auto;html=1;entryX=0;entryY=0.5;entryDx=0;entryDy=0;" edge="1" parent="1" source="UXiYXtpkKjH5TabHA4qE-164" target="UXiYXtpkKjH5TabHA4qE-167">
          <mxGeometry relative="1" as="geometry" />
        </mxCell>
        <mxCell id="UXiYXtpkKjH5TabHA4qE-161" style="edgeStyle=orthogonalEdgeStyle;rounded=0;orthogonalLoop=1;jettySize=auto;html=1;entryX=0;entryY=0.5;entryDx=0;entryDy=0;" edge="1" parent="1" source="UXiYXtpkKjH5TabHA4qE-164" target="UXiYXtpkKjH5TabHA4qE-168">
          <mxGeometry relative="1" as="geometry" />
        </mxCell>
        <mxCell id="UXiYXtpkKjH5TabHA4qE-162" style="edgeStyle=orthogonalEdgeStyle;rounded=0;orthogonalLoop=1;jettySize=auto;html=1;entryX=0;entryY=0.5;entryDx=0;entryDy=0;" edge="1" parent="1" source="UXiYXtpkKjH5TabHA4qE-164" target="UXiYXtpkKjH5TabHA4qE-169">
          <mxGeometry relative="1" as="geometry" />
        </mxCell>
        <mxCell id="UXiYXtpkKjH5TabHA4qE-163" style="edgeStyle=orthogonalEdgeStyle;rounded=0;orthogonalLoop=1;jettySize=auto;html=1;entryX=0;entryY=0.5;entryDx=0;entryDy=0;" edge="1" parent="1" source="UXiYXtpkKjH5TabHA4qE-164" target="UXiYXtpkKjH5TabHA4qE-170">
          <mxGeometry relative="1" as="geometry" />
        </mxCell>
        <mxCell id="UXiYXtpkKjH5TabHA4qE-164" value="Quản lý sản phẩm" style="rounded=1;whiteSpace=wrap;html=1;fillColor=#ffe6cc;strokeColor=#d79b00;labelBackgroundColor=none;labelBorderColor=none;" vertex="1" parent="1">
          <mxGeometry x="910" y="160" width="120" height="60" as="geometry" />
        </mxCell>
        <mxCell id="UXiYXtpkKjH5TabHA4qE-165" value="Thêm sản phẩm" style="whiteSpace=wrap;html=1;fillColor=#ffe6cc;strokeColor=#d79b00;rounded=1;labelBackgroundColor=none;labelBorderColor=none;" vertex="1" parent="1">
          <mxGeometry x="1020" y="240" width="120" height="60" as="geometry" />
        </mxCell>
        <mxCell id="UXiYXtpkKjH5TabHA4qE-166" value="Xóa sản phẩm" style="whiteSpace=wrap;html=1;fillColor=#ffe6cc;strokeColor=#d79b00;rounded=1;labelBackgroundColor=none;labelBorderColor=none;" vertex="1" parent="1">
          <mxGeometry x="1020" y="330" width="120" height="60" as="geometry" />
        </mxCell>
        <mxCell id="UXiYXtpkKjH5TabHA4qE-167" value="Cập nhập sản phẩm" style="whiteSpace=wrap;html=1;fillColor=#ffe6cc;strokeColor=#d79b00;rounded=1;labelBackgroundColor=none;labelBorderColor=none;" vertex="1" parent="1">
          <mxGeometry x="1017" y="410" width="120" height="60" as="geometry" />
        </mxCell>
        <mxCell id="UXiYXtpkKjH5TabHA4qE-168" value="Xem thông tin chi tiết sản phẩm" style="whiteSpace=wrap;html=1;fillColor=#ffe6cc;strokeColor=#d79b00;rounded=1;labelBackgroundColor=none;labelBorderColor=none;" vertex="1" parent="1">
          <mxGeometry x="1017" y="500" width="120" height="60" as="geometry" />
        </mxCell>
        <mxCell id="UXiYXtpkKjH5TabHA4qE-169" value="&amp;nbsp;Tìm kiếm sản phẩm" style="whiteSpace=wrap;html=1;fillColor=#ffe6cc;strokeColor=#d79b00;rounded=1;labelBackgroundColor=none;labelBorderColor=none;" vertex="1" parent="1">
          <mxGeometry x="1020" y="590" width="120" height="50" as="geometry" />
        </mxCell>
        <mxCell id="UXiYXtpkKjH5TabHA4qE-170" value="Sắp xếp sản phẩm" style="whiteSpace=wrap;html=1;fillColor=#ffe6cc;strokeColor=#d79b00;rounded=1;labelBackgroundColor=none;labelBorderColor=none;" vertex="1" parent="1">
          <mxGeometry x="1020" y="670" width="120" height="50" as="geometry" />
        </mxCell>
        <mxCell id="UXiYXtpkKjH5TabHA4qE-174" value="" style="endArrow=classic;html=1;rounded=0;" edge="1" parent="1" target="UXiYXtpkKjH5TabHA4qE-164">
          <mxGeometry width="50" height="50" relative="1" as="geometry">
            <mxPoint x="970" y="120" as="sourcePoint" />
            <mxPoint x="780" y="330" as="targetPoint" />
          </mxGeometry>
        </mxCell>
        <mxCell id="UXiYXtpkKjH5TabHA4qE-175" style="edgeStyle=orthogonalEdgeStyle;rounded=0;orthogonalLoop=1;jettySize=auto;html=1;entryX=0;entryY=0.5;entryDx=0;entryDy=0;" edge="1" parent="1" source="UXiYXtpkKjH5TabHA4qE-181" target="UXiYXtpkKjH5TabHA4qE-182">
          <mxGeometry relative="1" as="geometry" />
        </mxCell>
        <mxCell id="UXiYXtpkKjH5TabHA4qE-176" style="edgeStyle=orthogonalEdgeStyle;rounded=0;orthogonalLoop=1;jettySize=auto;html=1;entryX=0;entryY=0.5;entryDx=0;entryDy=0;" edge="1" parent="1" source="UXiYXtpkKjH5TabHA4qE-181" target="UXiYXtpkKjH5TabHA4qE-183">
          <mxGeometry relative="1" as="geometry" />
        </mxCell>
        <mxCell id="UXiYXtpkKjH5TabHA4qE-177" style="edgeStyle=orthogonalEdgeStyle;rounded=0;orthogonalLoop=1;jettySize=auto;html=1;entryX=0;entryY=0.5;entryDx=0;entryDy=0;" edge="1" parent="1" source="UXiYXtpkKjH5TabHA4qE-181" target="UXiYXtpkKjH5TabHA4qE-184">
          <mxGeometry relative="1" as="geometry" />
        </mxCell>
        <mxCell id="UXiYXtpkKjH5TabHA4qE-179" style="edgeStyle=orthogonalEdgeStyle;rounded=0;orthogonalLoop=1;jettySize=auto;html=1;entryX=0;entryY=0.5;entryDx=0;entryDy=0;" edge="1" parent="1" source="UXiYXtpkKjH5TabHA4qE-181" target="UXiYXtpkKjH5TabHA4qE-186">
          <mxGeometry relative="1" as="geometry" />
        </mxCell>
        <mxCell id="UXiYXtpkKjH5TabHA4qE-180" style="edgeStyle=orthogonalEdgeStyle;rounded=0;orthogonalLoop=1;jettySize=auto;html=1;entryX=0;entryY=0.5;entryDx=0;entryDy=0;" edge="1" parent="1" source="UXiYXtpkKjH5TabHA4qE-181" target="UXiYXtpkKjH5TabHA4qE-187">
          <mxGeometry relative="1" as="geometry" />
        </mxCell>
        <mxCell id="UXiYXtpkKjH5TabHA4qE-181" value="Quản lý nhân viên&lt;br&gt;" style="rounded=1;whiteSpace=wrap;html=1;fillColor=#ffe6cc;strokeColor=#d79b00;labelBackgroundColor=none;labelBorderColor=none;" vertex="1" parent="1">
          <mxGeometry x="1220" y="160" width="120" height="60" as="geometry" />
        </mxCell>
        <mxCell id="UXiYXtpkKjH5TabHA4qE-182" value="Thêm nhân viên" style="whiteSpace=wrap;html=1;fillColor=#ffe6cc;strokeColor=#d79b00;rounded=1;labelBackgroundColor=none;labelBorderColor=none;" vertex="1" parent="1">
          <mxGeometry x="1330" y="240" width="120" height="60" as="geometry" />
        </mxCell>
        <mxCell id="UXiYXtpkKjH5TabHA4qE-183" value="Xóa nhân viên" style="whiteSpace=wrap;html=1;fillColor=#ffe6cc;strokeColor=#d79b00;rounded=1;labelBackgroundColor=none;labelBorderColor=none;" vertex="1" parent="1">
          <mxGeometry x="1330" y="330" width="120" height="60" as="geometry" />
        </mxCell>
        <mxCell id="UXiYXtpkKjH5TabHA4qE-184" value="Cập nhập thông tin hân viên" style="whiteSpace=wrap;html=1;fillColor=#ffe6cc;strokeColor=#d79b00;rounded=1;labelBackgroundColor=none;labelBorderColor=none;" vertex="1" parent="1">
          <mxGeometry x="1327" y="410" width="120" height="60" as="geometry" />
        </mxCell>
        <mxCell id="UXiYXtpkKjH5TabHA4qE-186" value="&amp;nbsp;Tìm kiếm nhân viên" style="whiteSpace=wrap;html=1;fillColor=#ffe6cc;strokeColor=#d79b00;rounded=1;labelBackgroundColor=none;labelBorderColor=none;" vertex="1" parent="1">
          <mxGeometry x="1327" y="520" width="120" height="50" as="geometry" />
        </mxCell>
        <mxCell id="UXiYXtpkKjH5TabHA4qE-187" value="Sắp xếp nhân viên" style="whiteSpace=wrap;html=1;fillColor=#ffe6cc;strokeColor=#d79b00;rounded=1;labelBackgroundColor=none;labelBorderColor=none;" vertex="1" parent="1">
          <mxGeometry x="1327" y="610" width="120" height="40" as="geometry" />
        </mxCell>
        <mxCell id="UXiYXtpkKjH5TabHA4qE-188" value="" style="endArrow=classic;html=1;rounded=0;entryX=0.5;entryY=0;entryDx=0;entryDy=0;" edge="1" parent="1" target="UXiYXtpkKjH5TabHA4qE-181">
          <mxGeometry width="50" height="50" relative="1" as="geometry">
            <mxPoint x="1280" y="120" as="sourcePoint" />
            <mxPoint x="1270" y="70" as="targetPoint" />
          </mxGeometry>
        </mxCell>
        <mxCell id="UXiYXtpkKjH5TabHA4qE-189" style="edgeStyle=orthogonalEdgeStyle;rounded=0;orthogonalLoop=1;jettySize=auto;html=1;entryX=0;entryY=0.5;entryDx=0;entryDy=0;" edge="1" parent="1" source="UXiYXtpkKjH5TabHA4qE-194" target="UXiYXtpkKjH5TabHA4qE-195">
          <mxGeometry relative="1" as="geometry" />
        </mxCell>
        <mxCell id="UXiYXtpkKjH5TabHA4qE-190" style="edgeStyle=orthogonalEdgeStyle;rounded=0;orthogonalLoop=1;jettySize=auto;html=1;entryX=0;entryY=0.5;entryDx=0;entryDy=0;" edge="1" parent="1" source="UXiYXtpkKjH5TabHA4qE-194" target="UXiYXtpkKjH5TabHA4qE-196">
          <mxGeometry relative="1" as="geometry" />
        </mxCell>
        <mxCell id="UXiYXtpkKjH5TabHA4qE-191" style="edgeStyle=orthogonalEdgeStyle;rounded=0;orthogonalLoop=1;jettySize=auto;html=1;entryX=0;entryY=0.5;entryDx=0;entryDy=0;" edge="1" parent="1" source="UXiYXtpkKjH5TabHA4qE-194" target="UXiYXtpkKjH5TabHA4qE-197">
          <mxGeometry relative="1" as="geometry" />
        </mxCell>
        <mxCell id="UXiYXtpkKjH5TabHA4qE-192" style="edgeStyle=orthogonalEdgeStyle;rounded=0;orthogonalLoop=1;jettySize=auto;html=1;entryX=0;entryY=0.5;entryDx=0;entryDy=0;" edge="1" parent="1" source="UXiYXtpkKjH5TabHA4qE-194" target="UXiYXtpkKjH5TabHA4qE-198">
          <mxGeometry relative="1" as="geometry" />
        </mxCell>
        <mxCell id="UXiYXtpkKjH5TabHA4qE-194" value="Thống kê" style="rounded=1;whiteSpace=wrap;html=1;fillColor=#ffe6cc;strokeColor=#d79b00;labelBackgroundColor=none;labelBorderColor=none;" vertex="1" parent="1">
          <mxGeometry x="1530" y="160" width="120" height="60" as="geometry" />
        </mxCell>
        <mxCell id="UXiYXtpkKjH5TabHA4qE-195" value="Thống kê theo thời gian&lt;br&gt;" style="whiteSpace=wrap;html=1;fillColor=#ffe6cc;strokeColor=#d79b00;rounded=1;labelBackgroundColor=none;labelBorderColor=none;" vertex="1" parent="1">
          <mxGeometry x="1640" y="240" width="120" height="60" as="geometry" />
        </mxCell>
        <mxCell id="UXiYXtpkKjH5TabHA4qE-196" value="Thống kê tồn kho" style="whiteSpace=wrap;html=1;fillColor=#ffe6cc;strokeColor=#d79b00;rounded=1;labelBackgroundColor=none;labelBorderColor=none;" vertex="1" parent="1">
          <mxGeometry x="1640" y="330" width="120" height="60" as="geometry" />
        </mxCell>
        <mxCell id="UXiYXtpkKjH5TabHA4qE-197" value="Thống kê sản phẩm đã bán" style="whiteSpace=wrap;html=1;fillColor=#ffe6cc;strokeColor=#d79b00;rounded=1;labelBackgroundColor=none;labelBorderColor=none;" vertex="1" parent="1">
          <mxGeometry x="1637" y="410" width="120" height="60" as="geometry" />
        </mxCell>
        <mxCell id="UXiYXtpkKjH5TabHA4qE-198" value="Thống kê khách hàng theo thời gian&lt;br&gt;" style="whiteSpace=wrap;html=1;fillColor=#ffe6cc;strokeColor=#d79b00;rounded=1;labelBackgroundColor=none;labelBorderColor=none;" vertex="1" parent="1">
          <mxGeometry x="1637" y="520" width="123" height="60" as="geometry" />
        </mxCell>
        <mxCell id="UXiYXtpkKjH5TabHA4qE-200" value="" style="endArrow=classic;html=1;rounded=0;" edge="1" parent="1" target="UXiYXtpkKjH5TabHA4qE-194">
          <mxGeometry width="50" height="50" relative="1" as="geometry">
            <mxPoint x="1590" y="120" as="sourcePoint" />
            <mxPoint x="1290" y="350" as="targetPoint" />
          </mxGeometry>
        </mxCell>
      </root>
    </mxGraphModel>
  </diagram>
</mxfile>
